# xmcd
#
# Track frame offsets: 
#        150
#        20518
#        42884
#        62284
#        85449
#        107029
#        124433
#        142915
#        164858
#        186708
#        207172
#        227394
#
# Disc length: 3316 seconds
#
# Revision: 0
# Processed by: cddbd v1.5.2PL0 Copyright (c) Steve Scherf et al.
# Submitted via: ExactAudioCopy v1.0b3
#
DISCID=a90cf20c
DTITLE=贺西格 - DTS ES 正品 归来的马
DYEAR=2005
DGENRE=DTS ES
TTITLE0=黑小伙
TTITLE1=摇篮曲
TTITLE2=万丽姑娘
TTITLE3=我该怎么办
TTITLE4=归来的马
TTITLE5=小骝马
TTITLE6=岩山
TTITLE7=我从草原来
TTITLE8=美丽的草原我的家
TTITLE9=走进西藏
TTITLE10=母亲 
TTITLE11=天边
EXTD=
EXTT0=
EXTT1=
EXTT2=
EXTT3=
EXTT4=
EXTT5=
EXTT6=
EXTT7=
EXTT8=
EXTT9=
EXTT10=
EXTT11=
PLAYORDER=
